<svg xmlns="http://www.w3.org/2000/svg" width="100%" height="100%" viewBox="0 0 400 400">
    <!-- Created with SVG-edit - http://svg-edit.googlecode.com/ -->
    <g>
        <title>Layer 2</title>
        <path d="m345.23755,67.42014c-2.31638,-1.57245 -5.31705,-1.93705 -7.97556,-0.94575l-127.13409,47.66307c-5.52757,2.08518 -12.45016,3.0879 -19.55708,3.0879c-9.91016,0.02277 -20.16248,-1.97124 -27.30881,-4.6945c-2.55324,-0.94574 -4.68532,-2.00547 -6.19881,-2.95121c0.55275,-0.23925 1.18448,-0.47852 1.92145,-0.7292l115.63153,-43.34459l17.24072,6.39229l0,-18.67556c0,-2.78024 -1.39508,-5.41237 -3.72452,-6.97339c-2.31635,-1.57244 -5.34335,-1.93705 -7.96234,-0.94577l-127.13408,47.66308c-3.92195,1.37872 -7.29117,3.0537 -10.14706,5.5035c-2.80324,2.37006 -5.22487,6.28972 -5.18535,10.6424c0,0.11398 0.03947,0.30762 0.03947,0.30762l0,167.84056c0,0.06839 -0.02629,0.13675 -0.02629,0.21649c0,0.05707 0.02629,0.0798 0.02629,0.13678l0,0.17093l0.02634,0c0.27637,5.8681 3.68504,9.6055 6.94893,12.24905c10.27864,7.83942 27.51944,12.22626 45.85249,12.4541c8.68616,0 17.50397,-1.1394 25.67686,-4.17038l127.16043,-47.67442c3.35602,-1.24205 5.55389,-4.36414 5.55389,-7.88498l0,-168.35336c-0.01315,-2.78024 -1.4082,-5.41238 -3.72455,-6.98481l-0.00003,0.00002l0.00012,0.00008l0,-0.00002l0,0.00002l0,0.00003l0,0l0.00003,0zm-80.6236,-31.90451c-0.22372,-2.51818 -1.42136,-4.88821 -3.56659,-6.33532c-2.31628,-1.57244 -5.31697,-1.93704 -7.97548,-0.94575l-127.13406,47.66306c-5.52758,2.0738 -12.46335,3.08792 -19.55704,3.08792c-9.91014,0.0114 -20.16247,-1.98262 -27.30883,-4.70588c-2.54006,-0.93434 -4.68528,-1.99403 -6.19878,-2.93978c0.55276,-0.23928 1.19765,-0.47856 1.92148,-0.72926l115.64464,-43.34459l17.22757,6.39229l0,-18.67555c0,-2.78024 -1.39499,-5.41241 -3.72447,-6.9734c-2.31635,-1.57244 -5.35651,-1.93704 -7.97548,-0.94577l-127.13414,47.66307c-3.92194,1.36733 -7.27796,3.04234 -10.13387,5.50354c-2.81642,2.37007 -5.22487,6.28976 -5.18537,10.64243c0,0.12534 0.03947,0.30764 0.03947,0.30764l0,167.84058c0,0.06836 -0.01315,0.14818 -0.01315,0.21654c0,0.05696 0.01315,0.07973 0.01315,0.1367l0,0.18227l0.02632,0c0.27638,5.86824 3.68504,9.60562 6.94893,12.24908c10.27864,7.83939 27.51939,12.21487 45.86567,12.44278c4.94849,0 9.92331,-0.51276 14.81911,-1.3902l0,-153.4379c-0.13159,-7.9761 3.55347,-15.63319 10.02863,-21.14812c4.19829,-3.58929 9.3179,-6.42648 15.66144,-8.61422l117.71091,-44.14219l-0.00006,-0.00003l0,0l0,0l0,0l0,0.00002l0,0.00003l0,0.00001z" fill="#3892d3" id="svg_1"/>
        <text fill="#000000" stroke-width="0" stroke-dasharray="null" stroke-linejoin="null" stroke-linecap="null" x="106.97577" y="233.50631" id="svg_3" font-size="15" font-family="Serif" text-anchor="middle" xml:space="preserve" transform="matrix(4.7377 0 0 4.9063 -306.301 -768.498)" font-weight="normal">Resource</text>
    </g>
</svg>