<svg width="400" height="400" xmlns="http://www.w3.org/2000/svg" viewBox="0 0 400 400">
    <!-- Created with SVG-edit - http://svg-edit.googlecode.com/ -->
     <g>
      <path d="m295.96698,184.6821l-84.83623,-22.7384l22.72902,84.83363l18.5013,-18.49068l70.9955,70.99335l24.92343,-24.92267l-70.99551,-70.99333l18.6825,-18.6819zm-196.69968,-72.11063l84.83624,22.72833l-22.72902,-84.83364l-18.50131,18.49067l-67.22073,-67.21869l-24.92342,24.92265l67.22073,67.21868l-18.68249,18.69199l-0.00001,0.00002zm20.60509,92.64462l-69.15341,69.14127l24.92342,24.92267l69.14333,-69.1413l18.70262,18.692l22.72902,-84.83365l-84.83624,22.72832l18.49124,18.49069l0.00001,0zm159.27428,-109.42413l69.1232,-69.1513l-24.9234,-24.92265l-69.13327,69.14125l-18.68248,-18.68193l-22.72903,84.83366l84.83623,-22.73842l-18.49124,-18.48061z" fill="#3892d3" id="svg_1"/>
        <text font-weight="normal" transform="matrix(4.7377 0 0 4.9063 -306.301 -768.498)" xml:space="preserve" text-anchor="middle" font-family="Serif" font-size="15" id="svg_3" y="233.50631" x="106.97577" stroke-linecap="null" stroke-linejoin="null" stroke-dasharray="null" stroke-width="0" fill="#000000">Similarity</text>
     </g>
</svg>