<svg width="400" height="400" xmlns="http://www.w3.org/2000/svg" viewBox="0 0 400 400">
    <!-- Created with SVG-edit - http://svg-edit.googlecode.com/ -->
    <g>
        <title>Layer 2</title>
        <path d="m52.61534,126.91425c0,0 43.6171,-60.62675 69.37053,-47.2912c25.76584,13.33555 -5.1358,36.29295 19.8237,48.29104c24.94708,11.99809 62.62202,-2.97356 54.28564,-37.64338c-8.33636,-34.66982 -23.14832,-10.07632 -34.71005,-28.67078c-11.58658,-18.59445 56.89076,-59.60093 56.89076,-59.60093s41.69429,86.36291 53.54134,63.7691c14.35297,-27.33332 39.61017,-55.38082 65.81021,-13.30957c0,0 22.50327,31.3197 3.0517,44.59033s-36.18631,5.75233 -43.49301,20.16562c-7.26953,14.43927 46.94171,53.14742 46.94171,53.14742s-37.05469,62.45763 -61.10858,46.07062c-24.05392,-16.38702 4.41626,-43.68138 -32.24144,-51.79697c-15.97806,-2.98654 -42.64948,6.98589 -47.36349,30.38478c-1.61267,35.17622 19.89813,26.17764 34.69766,45.12271c14.77473,18.91907 -55.62541,58.71796 -55.62541,58.71796s-19.65004,-50.93999 -47.27667,-60.47092c-27.62664,-9.54395 -11.07795,27.72287 -36.1863,32.8649c-25.10836,5.14206 -59.744,-31.15089 -42.92239,-62.18495c16.84642,-31.04701 40.6274,-0.5713 42.68669,-25.33362c2.0841,-24.7753 -46.17259,-56.82216 -46.17259,-56.82216z" fill="#2E64FE" id="svg_1"/>
        <text fill="#000000" stroke-width="0" stroke-dasharray="null" stroke-linejoin="null" stroke-linecap="null" x="106.97577" y="233.50631" id="svg_3" font-size="15" font-family="Serif" text-anchor="middle" xml:space="preserve" transform="matrix(4.7377 0 0 4.9063 -306.301 -768.498)" font-weight="normal">Phase</text>
    </g>
</svg>