<svg width="400" height="400" xmlns="http://www.w3.org/2000/svg" viewBox="0 0 400 400">
    <!-- Created with SVG-edit - http://svg-edit.googlecode.com/ -->
    <g>
      <title>Layer 2</title>
      <path d="m337.40042,249.6449l-69.25616,-87.04739c-6.77731,-8.53058 -12.33926,-23.0847 -12.33926,-32.35852s10.56769,-16.87257 23.48364,-16.87257s23.50427,-5.69074 23.50427,-12.64612s-14.11078,-12.6461 -31.33212,-12.6461l-140.90193,0c-17.22134,0 -31.31152,5.69075 -31.31152,12.6461s10.56762,12.64612 23.48363,12.64612s23.48364,7.59876 23.48364,16.87257s-5.54132,23.82794 -12.33922,32.35852l-69.25618,87.04739c-6.7773,8.5195 -12.33923,19.29086 -12.33923,23.92776s7.04511,12.23569 15.65578,16.87259s29.74597,8.43073 46.9673,8.43073l172.19288,0c17.22134,0 38.35663,-3.79382 46.96729,-8.43073s15.65576,-12.23566 15.65576,-16.87259s-5.54129,-15.40826 -12.31857,-23.92776zm-114.10173,-186.50795c0,6.64476 9.97025,12.01381 22.30948,12.01381s22.30946,-5.36905 22.30946,-12.01381s-9.97028,-12.0249 -22.30946,-12.0249s-22.30948,5.38015 -22.30948,12.0249zm-60.04813,1.85254c5.68553,0 10.29985,-2.48485 10.29985,-5.54654s-4.61432,-5.54654 -10.29985,-5.54654s-10.29985,2.48485 -10.29985,5.54654s4.61432,5.54654 10.29985,5.54654zm39.48961,-27.7327c18.00415,0 32.60931,-7.86499 32.60931,-17.56034c0,-9.70645 -14.60516,-17.57144 -32.60931,-17.57144c-18.02473,0 -32.6299,7.865 -32.6299,17.57144c0,9.69535 14.60515,17.56034 32.6299,17.56034z" fill="#3892d3" id="svg_1"/>
      <text fill="#000000" stroke-width="0" stroke-dasharray="null" stroke-linejoin="null" stroke-linecap="null" x="103.44804" y="233.09867" id="svg_3" font-size="15" font-family="Serif" text-anchor="middle" xml:space="preserve" transform="matrix(3.96856 0 0 4.9063 -210.521 -768.498)" font-weight="normal">Environment</text>
     </g>
</svg>