<svg width="400" height="400" xmlns="http://www.w3.org/2000/svg" viewBox="0 0 400 400">
    <!-- Created with SVG-edit - http://svg-edit.googlecode.com/ -->
    <g>
        <title>Layer 2</title>
        <path id="svg_1" fill="#0B610B" d="m141.66685,267.85172l116.68648,0l0,-60.60979l-116.68648,0l0,60.60979zm58.34325,31.31427c40.18257,0 52.67865,-12.05389 56.58237,-19.5538l-113.1647,0c3.90369,7.49991 16.39975,19.5538 56.58234,19.5538zm0,-297.33298c-82.02001,0 -148.5101,36.7837 -148.5101,82.15888c0,45.29301 83.69604,57.94548 89.59402,111.48961l26.96521,0c-0.19096,-0.29346 -0.50919,-0.57512 -0.61526,-0.9155l-42.43147,-129.08334c-0.91228,-2.87556 2.10036,-5.69243 7.10728,-6.60792c5.02811,-0.91549 10.48056,0.30516 12.83551,2.93425l11.7323,12.9811l11.73228,-12.9811c1.78214,-1.99529 5.45244,-3.25114 9.4622,-3.25114c4.0098,0 7.68011,1.25586 9.46222,3.25114l11.73233,12.9811l11.7323,-12.9811c1.78212,-1.99529 5.45245,-3.25114 9.50464,-3.25114c4.00977,0 7.63765,1.25586 9.4622,3.25114l11.75352,12.9811l11.7323,-12.9811c2.35493,-2.62909 7.80737,-3.86147 12.8143,-2.93425s7.99832,3.73236 7.06485,6.60792l-42.41026,129.08334c-0.10606,0.34038 -0.42433,0.62204 -0.61523,0.9155l28.76848,0c5.89798,-53.54413 89.61526,-66.18486 89.61526,-111.48961c0.02121,-45.36344 -66.4689,-82.15888 -148.48889,-82.15888zm41.54041,91.93578c-4.0522,0 -7.72253,-1.25585 -9.46225,-3.22767l-11.75348,-12.98111l-11.73232,12.98111c-1.82454,1.97182 -5.45244,3.22767 -9.46222,3.22767c-4.0522,0 -7.7225,-1.25585 -9.52583,-3.22767l-11.73233,-12.98111l-11.73227,12.98111c-1.78214,1.97182 -5.45244,3.22767 -9.46222,3.22767c-0.25459,0 -0.5304,0 -0.785,-0.01173l30.84769,93.90759l24.75876,0l30.84767,-93.90759c-0.29701,0.01173 -0.55162,0.01173 -0.8062,0.01173z"/>
        <text font-weight="normal" transform="matrix(4.7377 0 0 4.9063 -306.301 -768.498)" xml:space="preserve" text-anchor="middle" font-family="Serif" font-size="15" id="svg_3" y="233.50631" x="106.97577" stroke-linecap="null" stroke-linejoin="null" stroke-dasharray="null" stroke-width="0" fill="#000000">Artifact</text>
    </g>
</svg>