<svg width="400" height="400" xmlns="http://www.w3.org/2000/svg" viewBox="0 0 400 400">
 <!-- Created with SVG-edit - http://svg-edit.googlecode.com/ -->
 <g>
   <title>Layer 2</title>
   <path d="m274.81161,234.23689l-149.48454,0l0,-21.84467l149.48454,0l0,21.84467zm-0.02847,-40.35147l-58.22017,0l0,-21.84465l58.22017,0l0,21.84465zm0,-40.29173l-58.22017,0l0,-21.84465l58.22017,0l0,21.84465zm-37.07889,-123.46748l0,62.43932l76.39081,0l0,179.30825l-227.19116,0l0,-241.74757l150.80035,0m22.24182,-29.12621l-208.62907,0l0,300l298.36491,0l0,-226.63835l-89.73584,-73.36165zm-67.45319,192.88542l-67.16582,0l0,-62.13567l67.16582,0l0,62.13567z" fill="#3892d3" id="svg_1"/>
   <text fill="#000000" stroke-width="0" stroke-dasharray="null" stroke-linejoin="null" stroke-linecap="null" x="106.97577" y="233.50631" id="svg_3" font-size="15" font-family="Serif" text-anchor="middle" xml:space="preserve" transform="matrix(4.7377 0 0 4.9063 -306.301 -768.498)" font-weight="normal">学习结果</text>
  </g>
</svg>