<svg width="400" height="400" xmlns="http://www.w3.org/2000/svg" viewBox="0 0 400 400">
    <!-- Created with SVG-edit - http://svg-edit.googlecode.com/ -->
    <g>
        <title>Layer 2</title>
        <path d="m222.91574,202.72691l-8.55829,-30.09288c2.50809,-2.21028 4.86215,-4.57529 7.08424,-7.10605l29.93199,8.59796c3.15712,-4.61946 5.87421,-9.52628 8.3053,-14.62096l-22.27577,-21.66069c1.06705,-3.1828 1.99109,-6.42085 2.65111,-9.75836l30.02002,-7.55914c0.21997,-2.78494 0.42902,-5.58094 0.42902,-8.43219s-0.22003,-5.63621 -0.42902,-8.42115l-30.02002,-7.55914c-0.67104,-3.33752 -1.59506,-6.57558 -2.65111,-9.75837l22.28676,-21.66069c-2.44208,-5.08363 -5.15916,-10.00149 -8.31628,-14.62097l-29.93199,8.58692c-2.21107,-2.51972 -4.57616,-4.88471 -7.08424,-7.10604l8.55829,-30.08184c-4.59814,-3.16069 -9.49332,-5.90143 -14.56448,-8.34379l-21.56073,22.39008c-3.1571,-1.07198 -6.39122,-1.98924 -9.71332,-2.66338l-7.51326,-30.17025c-2.7831,-0.20998 -5.55519,-0.431 -8.39328,-0.431s-5.6102,0.22103 -8.38229,0.431l-7.52425,30.17025c-3.32211,0.67413 -6.54523,1.5914 -9.71332,2.66338l-21.56073,-22.39008c-5.06017,2.47551 -9.94433,5.2052 -14.54249,8.37694l8.5583,30.08183c-2.50809,2.21028 -4.87317,4.58632 -7.07324,7.09498l-29.94301,-8.59797c-3.1571,4.61947 -5.87419,9.53733 -8.30527,14.63202l22.28675,21.66069c-1.05604,3.18279 -1.98007,6.42085 -2.65109,9.75836l-30.03101,7.55914c-0.20901,2.78494 -0.42902,5.58095 -0.42902,8.42115s0.22001,5.6362 0.42902,8.43219l30.03101,7.55914c0.67102,3.33752 1.59505,6.57558 2.65109,9.75838l-22.28675,21.66069c2.43108,5.08362 5.14817,10.0015 8.30527,14.62096l29.94301,-8.59796c2.20007,2.53076 4.56515,4.8847 7.07324,7.10603l-8.5583,30.09288c4.59816,3.16071 9.49332,5.8904 14.55349,8.3438l21.56071,-22.39009c3.16811,1.07199 6.39124,2.00031 9.71335,2.66339l7.52425,30.15921c2.77208,0.22101 5.55519,0.43098 8.39328,0.43098s5.61018,-0.22102 8.39328,-0.43098l7.51324,-30.15921c3.32211,-0.67413 6.55621,-1.60245 9.71333,-2.66339l21.56071,22.39009c5.04918,-2.47551 9.94435,-5.2052 14.5425,-8.36589zm-61.73407,-53.05765c-20.64771,0 -37.39026,-16.82019 -37.39026,-37.56362s16.74255,-37.55256 37.39026,-37.55256s37.37926,16.80914 37.37926,37.55256s-16.73157,37.56362 -37.37926,37.56362zm170.41772,78.52c0.20898,-6.04509 -0.66003,-12.20071 -2.53009,-18.27896l13.68448,-19.5941c-2.06812,-3.86795 -4.40018,-7.53702 -7.05127,-10.87454l-23.34277,4.91786c-4.70816,-4.02271 -10.06534,-7.1613 -15.79654,-9.40471l-6.72122,-22.9758c-4.24612,-0.75151 -8.54727,-1.1604 -12.90344,-1.17145l-10.71436,21.39545c-3.06909,0.59679 -6.13818,1.41458 -9.15228,2.57497c-2.82712,1.08305 -5.46721,2.43132 -7.99728,3.90114l-22.06674,-9.05107c-3.26711,2.89546 -6.2482,6.02299 -8.9433,9.41577l9.97733,21.7491c-2.84908,5.47043 -4.80716,11.36081 -5.70918,17.51643l-20.8017,11.71445c0.209,4.28793 0.83603,8.57588 1.80406,12.87486l23.14476,5.73566c2.54111,5.79091 5.95122,10.97401 10.07635,15.39455l-3.87213,23.62784c3.52011,2.54181 7.26024,4.72998 11.14339,6.63083l18.86563,-14.5878c5.89618,1.55823 12.06738,2.155 18.28259,1.65771l15.97253,17.75955c2.2001,-0.62994 4.38916,-1.30408 6.55624,-2.13293c1.92505,-0.72937 3.74011,-1.59137 5.55518,-2.46445l0.40701,-23.92624c5.00516,-3.7464 9.27332,-8.25537 12.67242,-13.32794l23.77179,-1.4809c1.67206,-3.96744 3.06912,-8.08958 4.04813,-12.32228l-18.35959,-15.27299zm-45.79453,22.18011c-13.21146,5.06152 -27.99597,-1.5914 -33.04514,-14.86409s1.57306,-28.1368 14.78448,-33.20938c13.21146,-5.06152 28.01794,1.5914 33.06711,14.86409c5.03818,13.27271 -1.59503,28.1368 -14.80646,33.20938z" fill="#F79F81" id="svg_1"/>
        <text fill="#000000" stroke-width="0" stroke-dasharray="null" stroke-linejoin="null" stroke-linecap="null" x="106.97577" y="233.50631" id="svg_3" font-size="15" font-family="Serif" text-anchor="middle" xml:space="preserve" transform="matrix(4.7377 0 0 4.9063 -306.301 -768.498)" font-weight="normal">Unassigned</text>
    </g>
</svg>