<svg width="400" height="400" xmlns="http://www.w3.org/2000/svg" viewBox="0 0 400 400">
    <!-- Created with SVG-edit - http://svg-edit.googlecode.com/ -->
    <g>
        <title>Layer 2</title>
        <path d="m199.65381,109.79097c-22.10797,0 -40.02199,17.91403 -40.02199,40.022c0,22.09772 17.91402,40.022 40.02199,40.022c5.06557,0 9.8645,-1.04594 14.32507,-2.76863l8.57246,13.17661l13.93542,-9.07495l-8.52122,-13.08429c7.2292,-7.23946 11.71025,-17.23724 11.71025,-28.27074c0,-22.10797 -17.91402,-40.022 -40.02199,-40.022zm-0.15381,-108.32497c-82.31017,0 -149.034,66.72383 -149.034,149.034c0,82.31017 66.72383,149.034 149.034,149.034c82.31018,0 149.034,-66.72383 149.034,-149.034c0,-82.31017 -66.72382,-149.034 -149.034,-149.034zm104.32587,198.34627c-2.47125,5.16809 -5.26041,10.15161 -8.46994,14.86855l-32.38266,-6.96259c-4.93225,5.39369 -10.55154,10.19263 -16.75529,14.20201l1.22023,32.83383c-5.19885,2.35844 -10.54128,4.317 -16.08876,5.84486l-20.04691,-25.77896c-3.81454,0.52296 -7.69063,0.88187 -11.64873,0.88187c-3.65047,0 -7.23944,-0.29736 -10.77713,-0.7588l-19.94434,25.63539c-5.5475,-1.54837 -10.92067,-3.50693 -16.09903,-5.83461l1.19974,-32.2596c-6.50114,-4.08116 -12.38704,-9.02367 -17.55513,-14.63269l-31.5213,6.74724c-3.20955,-4.67589 -5.97817,-9.67993 -8.46993,-14.84804l21.41068,-23.67685c-2.31744,-7.20868 -3.62997,-14.8788 -3.94785,-22.795l-28.38353,-15.0121c0.56399,-5.77309 1.69194,-11.35136 3.08651,-16.8476l31.62384,-4.37852c2.9737,-7.19843 6.92156,-13.86363 11.63848,-19.91359l-12.12043,-29.74732c4.09142,-3.98887 8.51096,-7.6291 13.15609,-10.97196l27.30684,17.14496c6.66521,-3.45565 13.83286,-6.08072 21.37993,-7.69063l9.92603,-30.77274c2.85066,-0.21534 5.69106,-0.43067 8.58273,-0.43067c2.89166,0 5.74232,0.22559 8.58273,0.43067l10.00806,31.0496c7.38301,1.67143 14.36609,4.26574 20.87749,7.69062l27.72723,-17.40131c4.66565,3.34285 9.09546,6.98308 13.17664,10.97195l-12.46909,30.61893c4.38879,5.78335 8.13156,12.11016 10.95145,18.91893l32.65952,4.52209c1.38431,5.48598 2.53278,11.08474 3.09674,16.84759l-29.39868,15.5453c-0.3486,7.44452 -1.53812,14.66347 -3.6402,21.53375l22.10797,24.42542z" fill="#3892d3" id="svg_1"/>
        <text style="cursor: move;" fill="#000000" stroke-width="0" stroke-dasharray="null" stroke-linejoin="null" stroke-linecap="null" x="106.97577" y="233.50631" id="svg_3" font-size="15" font-family="Serif" text-anchor="middle" xml:space="preserve" transform="matrix(4.7377 0 0 4.9063 -306.301 -768.498)" font-weight="normal">活动</text>
    </g>
</svg>