<svg xmlns="http://www.w3.org/2000/svg" width="100%" height="100%" viewBox="0 0 400 400">
    <!-- Created with SVG-edit - http://svg-edit.googlecode.com/ -->
    <g>
        <title>Layer 2</title>
        <path d="m295.69263,182.5027l-25.43704,13.97435c7.74265,13.50279 15.13535,26.23497 20.16592,34.88412l22.34216,-12.26062c-4.17752,-9.0172 -10.43292,-22.47397 -17.07104,-36.59785zm-57.04201,-42.96967c4.8665,9.66127 14.67607,27.22409 24.86839,45.15497l26.39944,-14.50342c-9.53619,-20.34619 -18.80988,-39.77225 -22.82339,-47.40927c-9.79861,-18.64397 -21.67508,-35.74672 -37.77281,-62.30373c-18.29588,-30.19149 -37.86034,-63.16635 -44.31256,-56.89802c-13.05754,4.41658 13.5278,47.08722 20.51588,65.73119c6.73656,17.99989 20.52681,45.20097 33.12505,70.22829zm79.98567,91.83965l-21.44543,11.75453l21.67511,52.88399c0,0 8.86905,7.86703 20.99704,2.44983c12.07333,-5.3942 8.85812,-19.62158 8.85812,-19.62158l-30.08484,-47.46677zm-23.04208,-80.07359c1.83725,3.899 31.97678,68.20403 31.97678,68.20403l21.68604,0l0,-68.20403l-53.66281,0zm-65.72517,-0.08051l-51.68338,0l-37.44476,68.26152l127.51338,0c-3.18234,-5.52074 -33.67183,-59.34785 -38.38524,-68.26152zm-165.23154,67.96249l37.58692,-67.88199l-50.14142,0l0,68.20403l12.39046,0l0.16404,-0.32204zm129.23033,-131.89944c0,-10.69642 -8.24573,-19.38007 -18.42711,-19.38007c-7.22868,0 -13.46217,4.38207 -16.4805,10.76542l32.54544,18.0804c1.50917,-2.79487 2.36217,-6.0268 2.36217,-9.46575zm-7.70985,22.02541l-34.86386,-19.36856l-16.78673,30.318l34.9623,19.42607l16.68829,-30.37551zm-121.94698,170.52154l-4.19941,12.74368l0,3.43893l3.25891,-1.47217l7.92858,-10.30539l32.77509,-27.07455l-34.30613,-18.98901l-5.45705,41.65851zm63.73483,-147.70253l-52.0224,93.96742l35.32317,19.6216l51.70525,-94.15144l-35.00603,-19.43758z" fill="#3892d3" id="svg_1"/>
        <text fill="#000000" stroke-width="0" stroke-dasharray="null" stroke-linejoin="null" stroke-linecap="null" x="106.97577" y="233.50631" id="svg_3" font-size="15" font-family="Serif" text-anchor="middle" xml:space="preserve" transform="matrix(4.7377 0 0 4.9063 -306.301 -768.498)" font-weight="normal">工具</text>
    </g>
</svg>