<svg xmlns="http://www.w3.org/2000/svg" width="100%" height="100%" viewBox="0 0 400 400">
    <!-- Created with SVG-edit - http://svg-edit.googlecode.com/ -->
    <g>
        <title>Layer 2</title>
        <path id="svg_1" fill="#3892d3" d="m253.6656,105.32542c0,0 9.38658,-46.20195 0,-61.85271c-9.39764,-15.65074 -13.14563,-26.0758 -33.80936,-33.53919s-13.13458,-5.97598 -28.15971,-5.21253c-15.02516,0.75029 -27.55165,10.42505 -27.55165,15.63758c0,0 -9.38657,0.75029 -13.13457,5.2257c-3.75905,4.4754 -10.01677,25.3255 -10.01677,30.55121s3.12885,40.25232 6.25772,47.70253l-3.72589,1.48742c-3.12886,43.21395 12.51544,48.43964 12.51544,48.43964c5.62752,40.25229 11.2661,23.11412 11.2661,33.53917s-5.63858,6.71312 -5.63858,6.71312s-4.99733,16.38788 -17.51277,22.35069c-12.51543,5.94966 -81.99157,37.98828 -87.6412,44.70135c-5.64964,6.72629 -5.00839,38.01459 -5.00839,38.01459l297.92704,0c0,0 0.65228,-31.2883 -4.99731,-38.01459c-5.66071,-6.72624 -75.13684,-38.75169 -87.65228,-44.70135c-12.51544,-5.96281 -17.51274,-22.35069 -17.51274,-22.35069s-5.63861,3.71196 -5.63861,-6.71312s5.63861,6.71312 11.27719,-33.53917c0,0 15.63322,-5.22569 12.51543,-48.43964l-3.75905,0l-0.00003,0z"/>
        <text font-weight="normal" transform="matrix(4.7377 0 0 4.9063 -306.301 -768.498)" xml:space="preserve" text-anchor="middle" font-family="Serif" font-size="15" id="svg_3" y="233.50631" x="106.97577" stroke-linecap="null" stroke-linejoin="null" stroke-dasharray="null" stroke-width="0" fill="#000000">Actor</text>
    </g>
</svg>